<?xml version="1.0" standalone="no"?>
<!DOCTYPE svg PUBLIC "-//W3C//DTD SVG 20010904//EN"
 "http://www.w3.org/TR/2001/REC-SVG-20010904/DTD/svg10.dtd">
<svg version="1.0" xmlns="http://www.w3.org/2000/svg"
 width="340.000000pt" height="270.000000pt" viewBox="0 0 340.000000 270.000000"
 preserveAspectRatio="xMidYMid meet">

<g transform="translate(0.000000,270.000000) scale(0.100000,-0.100000)"
fill="#000000" stroke="none">
<path d="M376 2547 c-20 -20 -26 -36 -26 -69 0 -45 21 -88 43 -88 7 0 62 -46
123 -102 61 -57 147 -136 192 -177 68 -61 80 -76 72 -92 -16 -30 -11 -49 16
-61 20 -9 30 -9 52 4 26 16 28 15 72 -23 50 -43 49 -46 -3 -24 -20 8 -66 15
-103 15 -63 0 -68 -2 -100 -35 -18 -20 -37 -51 -43 -69 -11 -41 -80 -145 -130
-195 -66 -67 -75 -109 -33 -161 26 -32 61 -21 92 30 22 36 29 41 53 36 37 -8
138 -58 144 -72 2 -6 -3 -31 -12 -55 -9 -24 -23 -65 -31 -91 -8 -25 -22 -52
-30 -58 -17 -15 -19 -71 -3 -87 19 -19 -11 -225 -37 -251 -19 -18 -18 -66 1
-82 8 -7 15 -28 15 -49 -1 -35 -8 -42 -184 -184 -100 -82 -189 -153 -197 -157
-26 -16 2 -24 84 -24 123 0 137 7 304 136 8 6 23 -13 49 -63 60 -113 164 -216
238 -235 23 -5 28 -2 41 29 36 86 28 194 -16 217 -9 6 -20 23 -24 40 -5 25 0
39 30 80 35 47 123 125 132 116 2 -2 13 -40 23 -85 34 -141 90 -221 182 -261
43 -19 63 -21 114 -16 54 5 67 11 97 41 48 48 92 48 144 1 29 -25 51 -35 91
-41 149 -20 266 92 308 295 8 41 16 76 18 77 6 6 110 -88 141 -128 32 -41 34
-49 25 -75 -6 -16 -21 -36 -32 -45 -40 -31 -34 -205 9 -241 40 -33 191 99 257
223 22 41 40 76 42 77 1 2 33 -21 71 -51 86 -69 96 -74 175 -87 65 -10 161 -4
156 10 -2 4 -90 78 -195 165 -208 170 -215 179 -173 232 25 32 25 61 2 87 -12
13 -23 51 -30 101 -17 117 -17 128 -3 153 14 26 6 78 -13 89 -7 5 -18 30 -25
56 -6 27 -18 59 -25 70 -8 12 -16 34 -20 49 -6 25 -2 29 56 57 103 49 109 49
147 -4 42 -59 74 -59 104 -1 20 38 20 39 1 73 -10 20 -37 54 -60 77 -49 49
-124 158 -124 181 0 25 -50 93 -73 99 -39 10 -131 5 -172 -9 -48 -18 -48 -18
-40 -5 11 18 -8 11 -32 -12 -13 -12 -25 -20 -27 -17 -2 2 29 33 70 68 42 35
77 61 80 58 3 -3 -16 -22 -41 -42 -25 -21 -43 -40 -41 -43 3 -2 19 7 36 22 33
27 55 33 65 16 9 -15 51 -12 64 4 7 8 11 30 9 49 -3 33 4 41 176 198 98 90
188 170 201 176 35 20 45 37 47 81 2 49 -22 89 -58 98 -36 9 -101 -13 -115
-38 -12 -23 -120 -127 -281 -272 l-97 -87 -30 22 c-27 20 -33 21 -56 9 -29
-15 -31 -30 -10 -70 15 -28 14 -30 -18 -54 -42 -32 -43 -32 -52 2 -12 51 -73
147 -127 199 -54 53 -177 125 -237 138 -19 4 -52 26 -78 51 -24 24 -50 44 -57
44 -7 0 -18 11 -24 25 -15 32 -55 42 -87 21 -14 -9 -25 -23 -25 -30 0 -7 -14
-16 -31 -20 -18 -3 -33 -13 -36 -24 -5 -21 -79 -72 -104 -72 -35 0 -168 -82
-227 -139 -43 -43 -71 -82 -98 -138 -20 -43 -38 -80 -40 -81 -1 -2 -18 9 -38
24 -32 26 -33 29 -20 48 17 25 18 58 2 74 -17 17 -53 15 -68 -3 -7 -8 -19 -15
-27 -15 -17 0 -305 261 -367 333 -37 43 -48 50 -88 54 -40 5 -50 2 -72 -20z
m119 -8 c5 -5 0 -9 -14 -9 -33 0 -91 -61 -91 -96 0 -19 3 -25 9 -16 6 10 10
10 21 -3 16 -19 40 -3 40 26 0 12 7 19 19 19 11 0 22 3 24 8 3 4 -16 6 -41 4
l-47 -3 28 26 c34 31 58 32 83 4 18 -20 212 -202 318 -298 l48 -44 -30 -28
c-17 -16 -35 -29 -41 -29 -5 0 -14 -12 -20 -27 -10 -24 -10 -25 -5 -3 3 14 7
35 8 48 1 19 6 22 24 19 12 -2 22 0 22 4 0 5 -13 9 -29 9 -16 0 -34 7 -41 15
-16 19 -44 19 -60 0 -10 -13 -10 -19 5 -35 17 -19 19 -19 32 -2 13 16 14 15 4
-3 -7 -15 -5 -25 7 -39 9 -11 -2 -5 -25 14 -45 35 -52 51 -30 72 8 7 12 20 9
30 -3 12 1 18 11 18 9 0 18 -8 20 -17 4 -14 5 -12 6 5 1 18 -4 22 -28 22 -17
0 -33 5 -36 10 -8 13 -62 13 -70 -1 -4 -5 1 -19 10 -30 17 -18 19 -18 31 -1
12 15 12 15 7 -6 -3 -12 1 -30 8 -39 8 -10 -5 -2 -28 17 -45 35 -52 51 -30 72
8 7 12 20 9 30 -3 12 1 18 11 18 9 0 18 -8 20 -17 4 -14 5 -12 6 5 1 18 -4 22
-26 22 -38 1 -63 22 -63 54 0 22 -5 26 -27 26 -14 0 -34 7 -44 16 -20 18 -59
11 -59 -10 0 -20 32 -44 37 -28 3 6 9 12 15 12 6 0 5 -6 -2 -15 -11 -13 -7
-22 25 -55 35 -36 39 -38 52 -22 13 15 13 15 8 -6 -4 -13 -1 -30 6 -40 7 -9
-12 6 -42 34 -99 93 -141 129 -149 129 -16 0 -27 20 -33 60 -4 23 -3 34 2 26
7 -10 10 -10 16 -1 4 7 1 16 -6 21 -11 8 -9 13 10 29 18 16 32 19 60 14 20 -4
40 -10 46 -15z m2411 -4 c21 -21 23 -30 18 -67 -7 -43 -22 -73 -32 -63 -3 3
-30 -18 -59 -47 -29 -29 -53 -47 -53 -41 0 6 6 13 13 16 9 3 9 9 -1 26 -7 11
-8 21 -3 21 5 0 12 -7 15 -16 5 -13 9 -14 21 -4 37 31 -4 73 -42 44 -10 -7
-30 -14 -45 -14 -24 0 -28 -4 -28 -30 0 -32 -22 -50 -64 -50 -22 0 -26 -4 -25
-27 2 -24 2 -25 6 -5 5 25 33 31 33 6 0 -8 5 -24 11 -35 15 -29 42 -5 34 30
-5 23 -4 24 8 9 13 -16 15 -16 35 5 12 12 22 16 22 10 0 -6 -15 -22 -32 -36
-18 -14 -64 -55 -103 -91 -38 -35 -72 -62 -75 -60 -2 3 2 9 10 14 12 7 13 13
3 27 -6 10 -16 17 -23 15 -6 -1 -9 2 -6 7 4 5 2 12 -4 16 -5 3 -10 1 -10 -6 0
-18 -31 -38 -60 -39 l-25 -1 23 -9 c13 -6 22 -15 21 -22 -1 -7 1 -21 6 -31 7
-17 9 -17 26 -1 14 13 16 21 8 38 -10 20 -10 20 5 2 21 -26 21 -29 -13 -54
l-29 -21 -6 24 c-4 14 -12 25 -19 25 -7 0 -26 14 -42 30 -26 27 -26 35 -2 31
5 -1 6 3 3 8 -3 5 11 24 32 41 89 78 168 150 249 228 47 45 91 82 99 82 7 0
26 -11 41 -25 l28 -24 -45 -2 c-36 -1 -40 -2 -20 -8 15 -4 24 -14 22 -23 -4
-24 25 -43 43 -28 8 7 15 9 15 4 0 -5 4 -2 9 5 18 29 -34 96 -81 106 -33 8
-27 21 12 28 46 8 51 7 76 -18z m-1218 -2 c2 -9 -9 -13 -37 -13 -39 0 -50 8
-34 24 11 11 66 2 71 -11z m46 -43 c14 -5 26 -15 26 -21 0 -7 -6 -8 -17 -3
-29 13 -141 17 -173 5 -36 -12 -42 5 -7 19 30 12 140 12 171 0z m29 -41 c20
-5 37 -14 37 -19 0 -5 -12 -4 -27 2 -39 16 -222 16 -250 0 -14 -8 -23 -9 -23
-3 0 27 187 41 263 20z m-179 -54 c-23 -55 -43 -213 -50 -392 -6 -127 -10
-163 -21 -163 -10 0 -13 30 -13 143 0 165 13 288 40 366 21 64 18 82 -5 27
-17 -39 -42 -197 -46 -281 -1 -27 -6 -58 -11 -67 -5 -10 -4 -19 2 -23 7 -4 6
-13 -1 -27 -6 -11 -7 -18 -2 -15 12 7 10 -50 -2 -60 -4 -5 -5 -3 -2 3 6 11
-30 53 -39 46 -3 -1 -12 2 -22 7 -15 9 -14 10 5 8 12 0 20 -4 18 -7 -2 -4 2
-7 9 -7 7 0 13 6 13 12 0 7 -7 12 -16 12 -9 0 -21 1 -27 2 -25 3 7 236 47 341
26 69 56 103 87 97 12 -2 25 0 28 4 3 5 9 9 14 9 5 0 2 -16 -6 -35z m158 -11
c11 -26 26 -81 33 -123 19 -106 31 -411 17 -419 -13 -8 173 -6 283 3 l81 6 -8
92 c-12 161 -39 257 -90 329 -30 42 -30 43 -3 18 58 -54 106 -192 119 -345 9
-109 7 -111 -149 -122 -122 -8 -723 -8 -760 1 -11 2 -41 5 -67 5 -64 1 -78 18
-78 91 0 137 59 317 122 377 l31 28 -31 -44 c-17 -24 -41 -69 -52 -100 -20
-53 -49 -228 -50 -298 l0 -31 88 -8 c48 -4 188 -7 312 -8 l225 -1 -7 180 c-6
187 -20 300 -44 368 -17 47 -17 47 -3 47 5 0 19 -21 31 -46z m-270 4 c-56 -90
-91 -252 -95 -437 -1 -79 -5 -105 -16 -109 -12 -4 -13 18 -8 134 8 195 46 346
104 414 33 39 40 38 15 -2z m227 -5 c26 -97 43 -335 26 -362 -5 -8 -4 -12 1
-8 6 3 9 -18 8 -51 -1 -40 -5 -56 -14 -54 -6 1 -18 -2 -25 -8 -9 -8 -15 -8
-20 0 -3 5 -11 10 -16 10 -6 0 -8 -4 -5 -9 7 -10 -20 -9 -30 2 -11 10 -26 9
-20 -2 4 -5 -1 -8 -9 -7 -9 1 -14 6 -13 12 2 5 6 8 10 7 4 -2 5 3 2 11 -3 8 0
17 6 21 8 5 8 11 -1 21 -16 19 -28 8 -23 -21 3 -15 0 -25 -7 -25 -15 0 -6 300
11 399 15 90 23 101 70 101 37 0 40 -2 49 -37z m93 10 c41 -44 81 -173 82
-270 0 -44 4 -79 7 -78 3 2 5 -20 5 -49 -1 -34 -5 -53 -13 -53 -7 0 -9 5 -6
10 3 5 0 8 -8 5 -8 -3 -15 -16 -15 -29 -2 -41 -4 -43 -16 -31 -6 6 -12 24 -13
39 -1 16 -5 82 -9 148 -9 136 -28 252 -51 297 -18 38 -18 38 -2 38 7 0 25 -12
39 -27z m62 -26 c42 -72 76 -210 88 -358 6 -75 8 -144 5 -153 -16 -40 -24 -6
-30 122 -8 157 -35 292 -75 372 -36 73 -36 74 -23 66 6 -4 22 -26 35 -49z
m-440 -28 c-15 -30 -27 -58 -28 -64 -1 -5 -4 -14 -8 -20 -3 -5 -11 -35 -17
-65 -18 -95 -20 -102 -33 -118 -7 -9 -8 -13 -2 -9 13 8 13 -47 1 -60 -5 -4 -7
-2 -5 6 2 7 -2 15 -9 18 -7 3 -11 -3 -8 -15 2 -10 -2 -19 -10 -19 -13 0 -14
21 -2 33 12 12 8 26 -5 18 -7 -4 -4 3 7 16 11 13 14 20 8 16 -7 -4 -13 -3 -13
1 0 5 6 15 13 22 10 11 9 12 -2 6 -10 -6 -12 -4 -6 6 5 7 10 25 11 39 3 36 10
58 36 122 23 54 83 136 93 126 3 -2 -7 -29 -21 -59z m490 20 c19 -23 34 -44
34 -48 -1 -3 5 -20 14 -36 9 -17 18 -45 21 -62 3 -17 8 -36 11 -42 4 -5 1 -13
-5 -17 -8 -5 -9 -3 -4 7 5 8 6 12 2 9 -10 -9 -7 -25 6 -25 6 0 12 -11 12 -25
0 -14 4 -31 9 -39 7 -11 5 -13 -6 -8 -9 3 -21 0 -27 -6 -15 -15 -18 -9 -25 48
-7 67 -48 201 -76 248 -29 49 -10 47 34 -4z m-532 -2 c-63 -67 -122 -289 -122
-459 0 -27 -4 -48 -10 -48 -12 0 -12 3 -10 95 2 93 26 215 57 290 13 33 27 67
31 75 5 13 3 13 -11 1 -9 -7 -17 -22 -17 -32 0 -10 -4 -21 -10 -24 -5 -3 -10
-15 -10 -26 0 -10 -4 -19 -8 -19 -5 0 -9 -6 -10 -12 0 -7 -3 -24 -7 -38 -3
-14 -7 -30 -9 -37 -5 -26 -15 -24 -10 2 4 21 1 26 -10 22 -17 -7 -16 14 3 37
7 9 10 16 7 16 -4 0 3 14 15 32 13 17 16 28 8 23 -7 -5 2 10 21 32 19 23 40
40 46 40 6 -1 23 13 39 31 15 18 30 30 33 27 3 -3 -4 -15 -16 -28z m573 -3 c9
-14 19 -22 24 -20 12 8 64 -51 57 -62 -4 -6 -1 -14 5 -18 8 -5 9 -3 4 7 -5 8
-6 12 -2 9 3 -3 5 -8 4 -11 -1 -4 7 -17 17 -28 11 -12 21 -27 22 -34 2 -7 5
-22 8 -35 3 -14 1 -20 -6 -16 -6 4 -9 1 -6 -7 3 -8 10 -13 16 -12 9 2 9 -5 3
-36 -1 -2 -8 2 -16 9 -9 7 -13 15 -10 18 3 3 0 11 -6 19 -9 10 -8 13 2 13 8 0
7 5 -5 13 -9 7 -16 17 -14 22 3 12 -62 148 -69 142 -2 -3 5 -24 17 -47 54
-105 105 -430 68 -430 -12 0 -16 21 -21 113 -8 169 -48 309 -113 394 -15 20
-19 30 -10 27 8 -3 22 -17 31 -30z m-1375 5 c0 -24 -23 -21 -28 4 -2 10 3 17
12 17 10 0 16 -9 16 -21z m2178 4 c-5 -25 -28 -28 -28 -4 0 12 6 21 16 21 9 0
14 -7 12 -17z m-1765 -169 c4 -4 -13 -22 -37 -40 -24 -18 -64 -61 -90 -95 -25
-33 -46 -57 -46 -52 0 4 7 17 15 27 18 24 19 40 3 30 -20 -11 30 46 81 94 44
41 61 49 74 36z m1444 -81 c24 -29 39 -53 33 -53 -8 0 -7 -8 4 -25 33 -50 15
-35 -30 24 -46 62 -101 111 -122 111 -16 0 -15 17 1 23 20 7 66 -25 114 -80z
m-1304 32 c-9 -19 -18 -33 -21 -31 -4 5 26 66 33 66 3 0 -3 -16 -12 -35z
m1065 -20 c-3 -3 -9 2 -12 12 -6 14 -5 15 5 6 7 -7 10 -15 7 -18z m-982 -21
c1 -9 0 -13 -4 -10 -3 4 -7 14 -8 22 -1 9 0 13 4 10 3 -4 7 -14 8 -22z m-202
-36 c46 -41 48 -45 41 -81 -4 -21 -10 -37 -14 -35 -21 9 -130 105 -130 115 -1
11 36 43 49 43 3 0 27 -19 54 -42z m1233 -92 c7 -38 12 -79 10 -90 -2 -12 -7
2 -11 29 -7 46 -26 133 -40 180 -4 11 1 4 10 -15 9 -19 23 -66 31 -104z m131
118 c12 -8 22 -21 22 -27 0 -19 -129 -120 -134 -105 -18 58 -16 62 32 105 26
23 49 42 52 43 3 0 16 -7 28 -16z m-1284 -54 c-8 -30 -17 -81 -21 -112 -3 -32
-9 -58 -13 -58 -9 0 7 113 26 179 20 69 27 62 8 -9z m120 19 c-3 -5 -10 -7
-15 -3 -5 3 -7 10 -3 15 3 5 10 7 15 3 5 -3 7 -10 3 -15z m892 -6 c-10 -11
-19 -7 -22 10 -2 15 0 16 12 6 8 -6 12 -14 10 -16z m-93 -19 c-3 -8 1 -14 8
-14 15 -1 -17 -23 -37 -26 -12 -2 -13 45 -1 64 12 17 38 -4 30 -24z m-1205
-40 c0 -15 -4 -22 -10 -16 -5 5 -6 16 -2 25 9 23 12 21 12 -9z m1712 1 c0 -8
-4 -16 -9 -19 -5 -3 -8 5 -7 18 1 25 16 26 16 1z m-1568 -41 c66 -54 98 -87
67 -69 -11 7 -76 60 -143 117 -6 4 -6 8 -2 8 5 0 40 -25 78 -56z m362 5 c-3
-5 -10 -7 -15 -3 -5 3 -7 10 -3 15 3 5 10 7 15 3 5 -3 7 -10 3 -15z m692 -6
c-10 -11 -19 -7 -22 10 -2 15 0 16 12 6 8 -6 12 -14 10 -16z m-401 8 c3 -5 2
-12 -3 -15 -5 -3 -9 1 -9 9 0 17 3 19 12 6z m-142 -46 c-4 -14 -30 -14 -30 0
0 7 7 12 16 10 9 -1 15 -6 14 -10z m431 -6 c-3 -5 -10 -7 -15 -3 -5 3 -7 10
-3 15 3 5 10 7 15 3 5 -3 7 -10 3 -15z m-952 -13 c18 -8 42 -21 53 -31 11 -9
14 -14 8 -10 -29 14 -34 -8 -9 -34 26 -27 25 -27 -45 8 -59 29 -81 35 -139 35
-53 1 -72 -3 -89 -18 -12 -11 -21 -16 -21 -12 0 14 46 69 65 77 27 12 137 3
177 -15z m1635 0 c13 -13 13 -16 3 -11 -8 5 -1 -7 15 -25 l30 -33 -29 19 c-22
14 -49 19 -100 19 -39 0 -75 -3 -81 -8 -5 -4 -37 -21 -70 -37 l-60 -31 33 28
c39 35 40 43 5 37 l-28 -5 24 17 c74 53 221 70 258 30z m-964 -31 c-4 -14 -30
-14 -30 0 0 7 7 12 16 10 9 -1 15 -6 14 -10z m44 2 c0 -8 -6 -14 -14 -14 -9 0
-10 4 -2 14 6 7 12 13 14 13 1 0 2 -6 2 -13z m56 -2 c-4 -14 -30 -14 -30 0 0
7 7 12 16 10 9 -1 15 -6 14 -10z m-588 -15 c3 -5 -4 -10 -17 -11 -31 -2 90
-27 148 -31 11 -1 21 -7 21 -14 0 -13 -15 -13 -34 -1 -7 5 -18 5 -25 1 -6 -4
-8 -3 -4 4 3 6 -1 9 -9 8 -22 -3 -14 -21 10 -21 11 0 26 -4 34 -9 22 -14 156
-21 406 -21 263 0 385 5 385 15 0 4 11 6 24 5 14 -2 32 5 40 14 14 15 14 18 1
18 -8 0 -12 -4 -9 -8 2 -4 -8 -6 -23 -3 -19 3 -24 2 -14 -5 10 -6 5 -8 -16 -8
-16 1 -30 7 -30 13 0 6 15 10 34 9 19 -1 36 2 38 5 7 12 50 5 48 -7 -3 -13 22
-11 34 2 4 4 3 5 -4 1 -6 -3 -14 -2 -17 3 -7 11 9 16 71 26 61 10 60 10 54
-45 -7 -59 -964 -74 -1188 -18 -40 10 -43 13 -43 43 0 18 6 36 13 38 22 9 66
7 72 -3z m1110 0 c-28 -12 -47 -12 -40 0 3 6 18 10 33 9 24 0 25 -1 7 -9z
m-1380 -26 c71 -18 140 -56 156 -86 9 -17 9 -20 -3 -15 -8 3 -15 -1 -15 -9 0
-7 4 -11 9 -8 4 3 5 -2 2 -11 -5 -12 -9 -13 -20 -4 -8 6 -14 9 -14 5 0 -3 0
-8 0 -11 0 -10 -35 -42 -42 -38 -4 2 -10 -2 -14 -8 -4 -7 -3 -9 3 -6 21 13 23
-25 4 -52 l-20 -28 46 -38 c55 -46 123 -148 123 -184 0 -14 -9 -44 -20 -66
-14 -29 -18 -33 -14 -13 17 82 -133 244 -289 312 -101 44 -184 42 -221 -7 -17
-23 -18 -30 -8 -54 11 -26 11 -27 -3 -9 -8 11 -15 27 -15 36 0 28 69 110 92
110 13 0 18 5 15 14 -6 15 16 40 25 30 3 -3 9 0 14 7 4 8 3 10 -4 5 -17 -11
-15 9 3 24 8 7 15 18 15 24 1 21 50 71 82 83 44 15 45 15 113 -3z m1738 -1 c4
-2 5 -9 2 -14 -3 -5 0 -6 8 -3 8 3 17 -3 20 -13 4 -10 24 -43 46 -73 27 -38
36 -57 28 -62 -7 -5 0 -10 18 -14 36 -7 95 -79 95 -116 0 -14 -9 -36 -20 -49
l-20 -24 16 31 c21 37 13 79 -19 96 -40 22 -136 12 -205 -22 -35 -17 -68 -27
-74 -24 -6 4 -8 3 -5 -3 4 -6 -5 -19 -20 -29 -93 -60 -183 -174 -183 -232 0
-44 -14 -34 -30 22 -11 42 -10 47 16 97 34 62 98 128 169 175 54 36 150 74
187 74 13 0 30 5 38 10 11 7 5 8 -20 4 -76 -13 -118 -27 -177 -60 -35 -18 -63
-31 -63 -29 0 3 0 8 1 11 0 4 -5 10 -12 15 -15 9 -19 60 -4 52 5 -2 1 3 -10
12 -11 9 -19 20 -18 25 2 5 -3 7 -11 4 -8 -3 -17 0 -22 7 -5 8 -3 10 6 4 9 -5
11 -4 6 4 -4 6 -13 10 -20 9 -6 -2 -11 2 -11 7 0 6 4 9 9 7 5 -2 4 3 -2 11
-10 12 -8 17 10 29 44 29 108 58 145 67 35 9 107 5 126 -6z m-1260 -28 c-4
-14 -30 -14 -30 0 0 7 7 12 16 10 9 -1 15 -6 14 -10z m654 0 c0 -6 -6 -12 -12
-12 -6 0 -12 6 -12 12 0 6 6 12 12 12 6 0 12 -6 12 -12z m-913 -93 c-12 -114
45 -184 190 -231 112 -37 193 -46 401 -45 164 0 217 4 295 21 149 33 231 78
267 146 16 32 20 108 8 146 -6 19 -4 22 11 19 43 -8 39 -140 -6 -211 -48 -76
-188 -147 -298 -150 -26 -1 -50 -6 -53 -11 -4 -4 -77 -11 -164 -14 -372 -12
-608 62 -669 210 -26 61 -19 178 10 178 11 0 12 -13 8 -58z m56 35 c0 -4 4 -6
8 -3 5 3 9 -1 9 -9 0 -11 -4 -12 -14 -3 -15 12 -26 6 -29 -17 -1 -8 2 -13 7
-9 5 3 7 11 3 17 -3 7 2 3 10 -7 10 -12 12 -23 6 -31 -15 -18 -23 -78 -9 -69
8 4 9 3 5 -4 -12 -20 -24 -13 -35 21 -13 37 -11 96 1 103 5 3 6 9 4 13 -3 3 4
7 15 7 10 0 19 -4 19 -9z m1085 3 c-3 -5 -2 -10 3 -10 5 0 10 -10 10 -22 0
-13 1 -27 2 -33 5 -22 -1 -52 -13 -70 -16 -20 -39 -12 -31 10 4 8 11 12 18 8
6 -4 4 2 -4 12 -9 11 -10 16 -2 11 11 -6 13 -2 11 22 0 4 -6 6 -14 4 -21 -4
-26 13 -10 34 13 16 14 17 9 2 -3 -10 -1 -18 4 -18 6 0 9 10 7 21 -4 21 1 39
11 39 3 0 2 -4 -1 -10z m-25 -5 c0 -2 -6 -8 -13 -14 -10 -8 -14 -7 -14 2 0 8
6 14 14 14 7 0 13 -1 13 -2z m-136 -30 c30 -20 34 -27 9 -18 -12 5 -14 3 -7
-8 12 -20 14 -40 3 -33 -18 11 -9 -8 14 -28 12 -11 16 -16 8 -12 -10 5 -13 3
-9 -7 6 -14 -16 -54 -29 -54 -4 0 -8 -8 -8 -18 -2 -15 0 -15 17 3 23 24 43 18
28 -9 -5 -10 -6 -22 -2 -26 4 -5 2 -5 -5 -1 -7 4 -10 14 -7 24 5 14 4 14 -4 3
-6 -8 -8 -20 -5 -28 3 -8 2 -13 -3 -11 -5 1 -25 -3 -44 -9 -144 -48 -527 -51
-684 -7 -28 8 -57 15 -63 16 -7 1 -13 5 -13 10 0 5 -6 6 -12 2 -9 -5 -8 -2 1
10 12 14 12 19 1 29 -9 9 -11 9 -6 0 3 -6 2 -14 -3 -17 -5 -4 -8 2 -7 11 4 25
23 27 35 4 7 -13 8 -21 1 -24 -6 -3 -5 -4 2 -2 7 1 11 9 9 16 -2 8 -4 19 -4
26 0 7 -5 9 -10 6 -6 -4 -8 0 -4 10 4 10 2 16 -6 14 -7 -1 -11 6 -9 17 2 12
-1 16 -9 10 -8 -4 -10 -3 -5 4 4 6 14 8 23 5 10 -4 14 -2 10 4 -4 6 2 18 13
28 19 17 18 41 -1 30 -5 -4 -9 -1 -9 5 0 7 -7 10 -15 6 -23 -8 -18 0 11 19 21
14 28 14 42 3 11 -9 14 -9 8 -1 -5 10 67 13 336 15 404 3 379 5 412 -17z
m-1061 -52 c-8 -24 -24 -43 -34 -43 -16 0 -9 39 9 49 25 15 32 13 25 -6z m261
-4 c-3 -5 -10 -7 -15 -3 -5 3 -7 10 -3 15 3 5 10 7 15 3 5 -3 7 -10 3 -15z
m1094 9 c14 -14 16 -48 3 -48 -10 0 -26 19 -34 43 -7 20 13 23 31 5z m-1203
-7 c3 -5 2 -12 -3 -15 -5 -3 -9 1 -9 9 0 17 3 19 12 6z m-125 -35 c0 -8 -6
-16 -14 -19 -10 -4 -12 0 -9 14 6 22 23 26 23 5z m1293 -7 c3 -13 1 -19 -6
-16 -15 5 -22 37 -9 37 5 0 12 -9 15 -21z m-1088 -38 c3 -5 2 -12 -3 -15 -5
-3 -9 1 -9 9 0 17 3 19 12 6z m872 -6 c0 -8 -4 -12 -9 -9 -5 3 -6 10 -3 15 9
13 12 11 12 -6z m-1401 -18 c65 -19 168 -85 220 -140 l49 -51 -45 40 c-99 87
-221 153 -285 154 -23 0 -33 -7 -42 -27 -7 -15 -13 -33 -13 -39 0 -7 -5 -16
-10 -19 -6 -4 -10 -3 -9 2 2 4 -3 20 -11 35 -10 22 -11 30 0 43 15 18 88 20
146 2z m2058 7 c18 -7 22 -49 5 -59 -6 -4 -8 -13 -5 -21 3 -8 0 -11 -10 -7 -7
3 -14 16 -14 28 0 13 -5 27 -10 30 -6 4 -8 11 -5 16 11 16 -63 10 -114 -11
-72 -28 -134 -69 -198 -131 -31 -30 -51 -44 -44 -32 24 46 177 156 251 179 39
13 120 17 144 8z m-651 -39 c-3 -9 -8 -14 -10 -11 -3 3 -2 9 2 15 9 16 15 13
8 -4z m-982 -63 c-5 -9 -16 -35 -25 -57 l-17 -40 -19 44 c-20 43 -20 43 0 71
11 15 16 31 12 35 -4 5 8 -2 25 -14 26 -17 31 -26 24 -39z m1129 34 c11 -15
12 -18 2 -12 -11 7 -12 4 -3 -13 7 -11 14 -21 17 -21 3 0 2 5 -2 12 -4 6 -3 8
4 4 7 -4 5 -19 -7 -46 -10 -22 -20 -42 -23 -45 -2 -3 -15 18 -28 45 l-23 50
23 25 c13 14 24 24 25 22 0 -1 7 -11 15 -21z m-1429 -72 c-5 -16 -10 -21 -10
-12 -1 18 10 51 15 45 2 -1 -1 -16 -5 -33z m1676 4 c-3 -8 -6 -5 -6 6 -1 11 2
17 5 13 3 -3 4 -12 1 -19z m-1337 -17 c0 -11 6 -22 13 -25 6 -3 -1 -4 -18 -2
-16 1 -24 1 -17 -1 7 -3 17 -16 23 -30 7 -20 11 -22 22 -11 8 7 16 20 20 28 3
8 6 0 6 -18 1 -42 26 -90 60 -119 24 -20 24 -22 6 -23 -11 -1 -14 -4 -7 -7 6
-2 12 -14 13 -26 1 -16 3 -13 10 11 7 24 15 32 32 32 12 0 47 12 77 26 36 17
64 24 83 20 17 -4 26 -2 22 4 -3 6 -15 10 -26 10 -10 0 -19 5 -19 10 0 13 36
13 60 0 11 -6 31 -27 45 -48 14 -20 25 -31 25 -23 0 7 -18 31 -40 53 -22 22
-40 42 -40 44 0 2 9 4 20 4 10 0 32 -16 47 -35 15 -19 30 -35 33 -35 3 0 3 25
2 55 l-4 55 40 0 c22 0 45 -6 51 -14 12 -14 9 -73 -5 -100 -3 -6 11 8 31 32
26 30 44 42 63 42 26 0 26 0 -12 -32 -21 -17 -45 -46 -52 -64 -23 -54 -16 -53
16 3 17 29 39 57 49 63 25 13 61 13 61 0 0 -5 -9 -10 -19 -10 -11 0 -22 -4
-25 -8 -2 -4 10 -6 28 -4 22 3 51 -5 84 -22 28 -14 60 -26 71 -26 14 0 23 -10
30 -32 7 -24 9 -27 10 -11 1 12 9 24 19 26 11 3 9 5 -8 6 l-25 1 29 26 c32 30
56 81 56 119 0 15 4 24 10 20 6 -4 7 -12 3 -18 -4 -7 2 -5 12 3 10 8 16 10 12
3 -4 -6 -3 -14 2 -17 5 -3 11 3 14 13 3 15 -2 20 -24 25 -19 4 -29 12 -29 23
1 17 1 17 11 1 14 -24 39 -23 39 2 0 28 24 25 44 -5 13 -19 14 -33 7 -65 -9
-41 -3 -90 17 -127 18 -32 15 -68 -9 -118 -21 -44 -91 -115 -113 -115 -6 0 -3
7 7 14 21 16 22 26 2 26 -8 0 -33 7 -55 16 -34 14 -40 20 -34 38 6 20 5 20
-11 -1 -9 -13 -22 -23 -28 -23 -7 0 -6 4 3 10 12 7 9 13 -13 30 -15 12 -51 42
-79 66 -59 50 -109 60 -128 25 -16 -30 -12 -36 11 -15 18 17 23 17 46 4 15 -8
28 -21 31 -29 3 -8 0 -11 -7 -7 -6 4 -11 3 -11 -2 0 -5 -12 -14 -27 -21 -16
-7 -45 -24 -66 -38 -57 -40 -108 -37 -184 11 -35 21 -63 45 -63 52 0 8 -6 14
-12 14 -7 0 -4 7 7 16 11 8 30 13 43 11 28 -5 29 9 1 18 -36 12 -67 -4 -140
-70 -40 -35 -76 -62 -80 -59 -5 3 -9 1 -9 -4 0 -11 -65 -42 -90 -42 -10 0 -20
-5 -22 -11 -7 -20 -60 34 -84 85 -28 60 -30 86 -7 129 16 32 26 150 11 141
-14 -9 -9 16 8 41 19 30 44 33 44 6z m47 -13 c-3 -8 -6 -5 -6 6 -1 11 2 17 5
13 3 -3 4 -12 1 -19z m-281 -39 c15 -21 18 -40 16 -93 -2 -36 -7 -66 -10 -66
-9 0 -53 39 -72 64 -14 18 -13 19 3 13 10 -4 16 -3 12 2 -3 5 -1 12 4 15 8 5
8 29 0 46 -1 3 -3 10 -4 15 -2 6 -4 12 -5 15 -1 3 -3 12 -5 21 -4 24 37 2 61
-32z m1604 -1 c0 -9 5 -28 11 -42 8 -18 8 -32 0 -53 -10 -26 -11 -26 -6 12 l6
40 -27 -47 c-15 -27 -33 -48 -41 -48 -7 0 -13 -5 -13 -11 0 -17 -43 -48 -67
-49 -26 0 -30 -21 -9 -39 14 -12 16 -35 3 -47 -3 -4 -5 3 -2 14 2 12 0 24 -4
26 -4 3 -7 -7 -6 -22 1 -16 7 -26 15 -24 17 4 6 -175 -14 -222 -7 -17 -16 -53
-20 -80 -7 -45 -8 -47 -22 -28 -12 18 -12 33 -3 91 7 39 15 71 18 71 3 0 7 53
7 118 1 64 0 105 -3 89 -10 -60 -23 -11 -22 81 1 53 4 88 6 78 4 -14 7 -16 13
-6 6 9 11 2 15 -23 5 -24 3 -42 -5 -52 -6 -8 -10 -22 -7 -32 4 -16 5 -16 6 2
1 11 22 35 49 54 71 50 100 96 98 153 -1 39 0 43 11 29 7 -9 13 -24 13 -33z
m-91 10 c2 -18 4 -47 4 -65 1 -17 5 -29 9 -27 5 3 6 9 4 13 -3 4 1 8 9 8 15 0
-47 -82 -69 -90 -18 -7 -32 113 -17 142 8 15 48 51 56 51 0 0 2 -15 4 -32z
m-1634 12 c-17 -27 10 -85 60 -134 71 -69 95 -88 95 -77 0 6 -4 12 -8 15 -4 3
-6 21 -4 40 2 20 8 33 13 30 5 -3 9 2 9 11 0 9 4 14 8 11 14 -8 9 -189 -5
-193 -9 -3 -13 7 -13 33 0 20 -2 35 -5 32 -9 -9 15 -258 30 -324 12 -53 12
-62 -3 -84 l-16 -25 -8 50 c-5 28 -13 59 -18 70 -19 40 -36 280 -19 269 5 -3
7 -10 4 -15 -4 -5 -1 -9 4 -9 6 0 11 17 11 39 0 34 -3 39 -28 44 -32 7 -110
82 -118 114 -4 13 -9 23 -13 23 -10 0 -1 62 11 78 12 14 22 16 13 2z m735 -31
c0 -5 5 -7 12 -3 7 4 8 3 4 -4 -10 -16 -47 -14 -70 3 -19 14 -18 15 17 15 20
0 37 -5 37 -11z m284 -4 c-21 -16 -64 -20 -64 -6 0 12 19 19 54 20 28 1 29 0
10 -14z m-232 -20 c-5 -26 -16 -32 -27 -15 -7 11 11 40 25 40 4 0 5 -11 2 -25z
m156 -7 c-7 -19 -21 -12 -25 11 -3 20 -1 22 12 11 9 -7 14 -17 13 -22z m-872
-3 c-1 -8 -5 -17 -8 -21 -5 -4 -4 16 1 34 3 9 9 -1 7 -13z m-93 -52 c5 -26 4
-26 -9 -8 -16 22 -18 35 -5 35 5 0 11 -12 14 -27z m-23 -13 c0 -11 -7 -20 -15
-20 -15 0 -21 21 -8 33 12 13 23 7 23 -13z m1830 -25 c0 -6 -7 -20 -15 -31
-13 -17 -14 -17 -15 -1 0 9 5 17 10 17 6 0 10 5 10 11 0 6 -7 9 -15 5 -16 -6
-22 24 -8 38 8 8 33 -21 33 -39z m-1832 -27 c-5 -15 -23 -11 -26 6 -2 11 2 14
13 10 9 -4 14 -11 13 -16z m142 -127 c0 -42 5 -107 10 -145 6 -38 8 -71 6 -73
-7 -8 -96 78 -93 90 1 7 -4 11 -12 9 -12 -3 -12 0 -2 11 16 20 22 55 11 62 -5
3 -7 -4 -5 -15 2 -11 0 -18 -5 -15 -16 10 -3 38 20 42 35 5 50 22 50 56 0 32
-24 67 -47 67 -11 0 -11 3 -1 14 11 11 17 10 40 -7 26 -19 28 -25 28 -96z
m-125 69 c1 -22 -2 -40 -5 -40 -3 0 -5 -17 -3 -37 2 -30 1 -34 -6 -18 -11 23
-14 96 -5 119 11 28 19 17 19 -24z m1713 20 c3 -7 0 -10 -6 -6 -16 10 -52 -30
-52 -57 0 -31 21 -58 46 -59 16 -2 20 -8 19 -28 -1 -14 2 -33 7 -42 5 -10 4
-19 -4 -24 -6 -4 -8 -3 -4 4 3 6 2 13 -3 17 -6 3 -8 -5 -5 -19 3 -19 -5 -32
-39 -60 -24 -20 -47 -36 -51 -36 -6 0 -1 36 11 70 2 8 5 64 5 123 1 106 2 108
27 122 29 16 43 15 49 -5z m72 -47 c0 -31 -3 -53 -7 -50 -10 10 -12 117 -2
111 5 -3 9 -30 9 -61z m-1695 -13 c0 -41 -27 -53 -45 -20 -16 30 -3 62 23 58
18 -2 22 -10 22 -38z m599 16 c-5 -21 -3 -24 14 -19 15 3 35 -8 69 -39 90 -83
128 -83 216 -1 33 30 54 43 67 40 12 -3 21 1 23 12 3 9 5 3 6 -14 1 -45 -40
-85 -86 -85 -14 1 -11 5 12 23 16 12 34 22 40 22 5 0 10 6 10 14 0 28 -23 21
-56 -15 -81 -90 -87 -94 -122 -94 -36 0 -52 12 -126 94 -33 36 -56 43 -56 15
0 -8 5 -14 10 -14 6 0 24 -10 40 -23 l30 -23 -30 6 c-53 10 -86 64 -69 109 9
25 15 19 8 -8z m1032 9 c4 -8 3 -26 0 -40 -8 -30 -42 -34 -51 -5 -13 40 37 84
51 45z m-1032 -95 c4 -11 -2 -19 -23 -27 -27 -10 -30 -9 -35 12 -3 13 -3 32 1
42 5 14 1 13 -20 -6 -15 -14 -27 -21 -27 -17 0 5 17 23 37 42 l37 34 11 -33
c7 -17 15 -39 19 -47z m481 1 c-3 -2 -16 5 -28 17 l-24 22 4 -27 c5 -36 -9
-56 -31 -47 -11 4 -15 12 -11 23 4 9 9 33 12 54 l6 38 38 -37 c21 -21 36 -40
34 -43z m-1141 -95 c20 -24 58 -60 84 -80 l49 -35 21 -111 c11 -61 18 -118 15
-126 -3 -8 -1 -14 5 -14 28 0 39 -124 15 -163 -7 -11 -28 34 -54 118 -18 56
-18 57 -13 15 4 -24 15 -64 25 -88 11 -25 17 -47 14 -50 -5 -6 -135 126 -134
136 1 4 0 9 -1 12 -7 16 -6 58 2 54 12 -8 4 32 -11 50 -13 15 -11 19 7 14 4
-2 6 -7 4 -13 -2 -5 0 -6 5 -2 4 5 8 12 9 15 0 4 6 19 12 33 17 43 -13 118
-42 102 -8 -4 -8 -3 0 6 8 9 17 9 37 0 31 -14 32 -16 47 -131 7 -49 14 -88 17
-88 3 0 3 20 0 44 -4 31 -2 48 8 56 8 6 12 26 10 48 -2 20 -4 45 -4 55 -1 13
-7 16 -26 11 -20 -5 -34 4 -84 53 -47 48 -63 71 -76 116 -18 64 -10 101 10 43
7 -20 29 -56 49 -80z m1776 -8 c-8 -19 -9 -15 -5 17 l6 40 -20 -43 c-29 -62
-115 -142 -152 -142 -16 0 -29 -5 -29 -11 0 -5 4 -8 9 -4 5 3 13 0 17 -6 4 -7
3 -9 -4 -5 -13 8 -19 -2 -26 -37 -3 -19 -1 -24 9 -21 7 3 12 14 10 25 -2 11 0
17 4 14 5 -2 8 -21 6 -40 -3 -54 11 -41 18 16 4 28 11 57 17 64 14 17 48 26
56 14 3 -5 0 -8 -7 -7 -16 4 -39 -39 -39 -74 0 -16 9 -37 20 -48 11 -11 15
-20 8 -20 -9 0 -9 -3 0 -12 8 -8 8 -16 -1 -32 -6 -12 -12 -40 -12 -64 -1 -37
-7 -49 -55 -97 -30 -30 -57 -55 -61 -55 -4 0 1 22 12 49 25 67 52 187 46 208
-3 13 -5 12 -6 -5 -2 -39 -39 -174 -59 -215 l-18 -38 -13 41 c-13 46 -1 105
26 127 8 6 10 13 6 16 -8 5 7 106 32 222 5 23 73 71 94 66 7 -1 10 2 6 9 -4 6
8 27 27 48 18 20 42 57 53 82 l20 44 7 -52 c5 -30 4 -61 -2 -74z m-610 85 c0
-10 -42 -53 -52 -53 -17 0 -7 29 14 44 24 17 38 20 38 9z m-586 -22 c26 -29 5
-33 -27 -5 -24 20 -25 24 -9 24 10 0 27 -9 36 -19z m-137 -3 c-16 -6 -33 -6
-37 -2 -5 5 7 10 28 10 37 2 37 2 9 -8z m209 -66 c-13 -26 -32 -55 -42 -63
-14 -11 -16 -11 -10 0 7 10 3 12 -15 6 l-24 -8 25 22 25 22 -32 -16 c-40 -19
-53 -19 -27 0 18 13 17 14 -11 7 -52 -14 -83 5 -69 43 5 12 10 10 26 -10 11
-14 25 -25 31 -25 6 0 33 21 61 48 27 26 45 40 41 32 -6 -11 -2 -10 11 2 32
31 38 -4 10 -60z m75 39 c1 -14 2 -14 6 2 6 21 19 22 27 1 3 -8 10 -12 16 -9
5 3 10 -2 10 -13 0 -14 6 -19 23 -18 12 1 25 -3 30 -9 4 -6 10 -5 17 5 8 13
11 12 25 -5 16 -19 16 -19 9 5 -6 22 -5 23 10 11 14 -12 16 -11 16 3 0 10 5
14 10 11 6 -3 10 1 10 10 0 9 5 13 11 10 10 -7 19 -25 34 -75 7 -23 7 -24 -10
-10 -17 14 -18 13 -12 -5 6 -16 3 -15 -13 5 -16 20 -19 21 -13 5 6 -18 5 -19
-12 -5 -17 14 -18 14 -5 -10 12 -22 12 -24 -2 -12 -13 10 -17 10 -21 0 -3 -8
-9 -4 -15 12 -6 14 -11 18 -11 10 -1 -9 -10 -16 -21 -16 -11 0 -20 7 -20 16
-1 9 -6 6 -15 -10 -13 -22 -14 -23 -15 -5 0 17 -2 17 -10 5 -8 -12 -10 -10
-10 9 0 24 0 24 -16 5 -14 -18 -15 -18 -9 6 7 25 6 25 -18 -4 -17 -21 -26 -26
-31 -17 -6 9 -13 8 -28 -6 -21 -18 -21 -18 -4 14 23 45 20 54 -5 15 -32 -50
-32 -34 1 36 22 44 34 60 45 56 8 -4 16 -14 16 -23z m314 -42 c14 -27 27 -49
30 -49 5 0 -29 77 -38 87 -20 20 4 26 32 9 11 -7 12 -6 6 5 -11 17 14 0 61
-44 31 -28 72 -34 67 -9 -2 6 4 9 12 6 11 -5 13 -2 9 10 -8 22 3 20 15 -2 14
-26 0 -42 -45 -52 -29 -7 -45 -5 -61 5 -32 21 -39 18 -18 -5 18 -20 18 -21 0
-14 -14 6 -16 4 -10 -6 5 -9 4 -11 -4 -6 -6 4 -8 13 -4 19 4 7 -1 5 -11 -3
-16 -12 -20 -11 -37 10 -10 14 -19 29 -19 34 0 5 -3 7 -6 4 -3 -4 0 -17 7 -30
12 -22 11 -22 -6 -8 -17 14 -18 13 -11 -5 4 -12 4 -16 -2 -10 -5 6 -14 24 -20
40 -5 17 -14 39 -18 50 -7 18 -6 18 9 6 15 -12 17 -11 17 3 0 27 18 9 45 -45z
m-1108 29 c2 -18 0 -20 -7 -8 -12 18 -13 30 -2 30 4 0 9 -10 9 -22z m478 -248
c4 -19 19 -60 33 -90 14 -30 26 -61 28 -69 4 -20 53 -60 82 -68 35 -8 121 4
148 22 13 8 24 13 24 10 0 -2 18 5 40 16 51 27 114 27 165 2 22 -12 45 -22 50
-23 6 -1 21 -7 35 -12 89 -35 193 -13 205 43 4 16 10 27 14 25 11 -7 61 152
67 209 2 28 6 59 8 70 3 11 5 37 5 58 1 20 6 37 12 37 8 0 9 -25 4 -82 -15
-184 -57 -301 -136 -380 -49 -49 -119 -80 -144 -62 -143 98 -154 104 -197 104
-42 0 -92 -23 -127 -57 -8 -9 -35 -25 -59 -36 l-44 -19 -56 29 c-104 52 -172
181 -187 353 -4 41 -9 86 -11 100 -2 14 -1 34 3 45 4 12 11 -22 18 -85 7 -58
15 -121 20 -140z m49 120 c6 -83 22 -150 35 -150 5 0 5 19 0 43 -14 70 -9 76
10 10 22 -75 42 -108 83 -133 l31 -19 -34 -4 -34 -4 38 -1 c36 -2 117 33 117
51 0 12 -18 8 -22 -5 -6 -18 -28 0 -29 25 -1 12 -5 4 -9 -18 l-7 -40 -1 35
c-2 43 7 80 19 80 5 0 9 -5 9 -11 0 -6 6 -17 14 -24 12 -12 16 -12 26 0 17 20
60 20 60 0 0 -12 7 -14 28 -9 37 9 44 18 9 12 -18 -4 -26 -1 -24 6 2 6 18 12
35 14 25 3 32 -1 33 -15 1 -17 2 -17 6 0 3 14 13 17 36 15 17 -2 32 -8 34 -14
2 -6 -9 -9 -29 -8 -31 3 -31 3 5 -6 21 -6 48 -15 60 -20 22 -10 22 -10 0 6
-13 9 -23 20 -23 25 0 10 31 12 54 3 19 -7 22 -40 4 -46 -6 -2 6 -14 26 -26
43 -25 94 -22 120 7 23 25 57 107 66 160 7 37 8 31 4 -29 -3 -52 -2 -70 5 -59
11 18 31 128 31 176 0 33 17 89 25 81 10 -10 -15 -218 -35 -280 -24 -78 -63
-118 -114 -118 -19 0 -73 21 -132 51 -92 47 -103 51 -154 46 -41 -3 -80 -17
-143 -51 -70 -37 -95 -45 -124 -42 -78 10 -123 116 -137 321 -6 80 -5 87 7 65
8 -14 17 -59 21 -100z m-544 90 c0 -11 -7 -20 -15 -20 -17 0 -18 2 -9 24 9 23
24 20 24 -4z m1903 0 c4 -15 0 -20 -14 -20 -12 0 -19 7 -19 20 0 11 6 20 14
20 7 0 16 -9 19 -20z m-1905 -48 c6 -18 -15 -14 -22 4 -4 10 -1 14 6 12 6 -2
14 -10 16 -16z m1902 1 c0 -7 -7 -13 -15 -13 -8 0 -15 6 -15 13 0 8 7 14 15
14 8 0 15 -6 15 -14z m-45 -14 c-4 -5 -1 -9 4 -9 14 0 14 -36 0 -98 -9 -46
-41 -109 -36 -72 2 8 5 20 8 25 6 11 12 71 13 132 0 23 4 39 8 37 5 -3 6 -10
3 -15z m-1827 -36 c4 -53 6 -66 16 -82 7 -10 6 -12 -4 -6 -10 6 -11 4 -4 -6 4
-8 9 -20 11 -28 1 -11 -2 -10 -14 2 -21 20 -36 126 -21 144 14 17 14 18 16
-24z m1279 5 c-3 -7 -5 -2 -5 12 0 14 2 19 5 13 2 -7 2 -19 0 -25z m-473 13
c3 -5 24 -7 46 -4 32 4 41 2 46 -12 4 -10 1 -21 -7 -26 -15 -9 -52 -2 -57 13
-2 5 -10 4 -18 -2 -21 -18 -74 -3 -74 21 0 14 7 19 29 19 17 0 32 -4 35 -9z
m266 -10 c0 -19 -30 -31 -70 -29 -9 1 -27 -1 -40 -5 -32 -8 -55 6 -46 28 5 14
14 16 46 12 22 -3 43 -1 46 4 3 5 18 9 35 9 22 0 29 -5 29 -19z m44 13 c18 -7
21 -30 6 -39 -13 -8 -40 13 -40 31 0 15 10 17 34 8z m-384 -12 c0 -5 -8 -17
-19 -26 -17 -15 -19 -15 -25 -1 -10 28 -7 35 19 35 14 0 25 -4 25 -8z m-335
-48 c-134 -112 -141 -117 -68 -45 40 39 79 71 85 71 7 0 0 -12 -17 -26z m1054
-8 c25 -19 60 -49 76 -67 22 -24 14 -20 -32 17 -34 27 -72 57 -85 66 -13 9
-19 17 -14 18 4 0 29 -15 55 -34z m-1358 8 c10 -13 10 -17 -2 -25 -8 -5 -20
-7 -26 -4 -7 2 -13 -2 -13 -10 0 -16 41 -17 52 0 5 7 8 7 8 -1 0 -5 -6 -19
-14 -29 -14 -19 -15 -19 -35 -1 -23 21 -27 56 -9 74 16 16 23 15 39 -4z m1676
0 c7 -18 -14 -35 -34 -27 -8 3 -13 -2 -13 -16 0 -21 1 -21 25 -5 28 18 34 4 9
-21 -32 -31 -58 20 -34 66 13 23 38 25 47 3z m-1804 -61 c-9 -58 -114 -151
-234 -208 -85 -40 -86 -43 -3 -15 32 12 71 20 86 18 16 -2 40 7 60 21 18 14
49 35 68 49 34 23 34 23 -5 -13 -98 -91 -168 -119 -279 -113 l-56 3 177 147
c98 80 181 147 185 147 4 1 4 -16 1 -36z m213 9 c2 -11 0 -23 -5 -26 -4 -3 -8
5 -7 17 1 12 -3 26 -9 30 -6 5 -5 7 4 5 8 -2 16 -14 17 -26z m1913 -162 c66
-52 120 -98 120 -102 2 -14 -124 -9 -173 6 -44 14 -202 123 -192 133 2 3 33
-18 68 -46 47 -36 70 -49 86 -45 11 4 44 -2 72 -11 69 -23 74 -13 8 14 -46 18
-152 94 -200 142 -9 8 -19 35 -23 59 l-7 44 60 -50 c34 -27 115 -92 181 -144z
m-2099 128 c0 -21 62 -134 103 -187 43 -56 120 -121 143 -121 8 0 21 24 31 60
9 33 18 58 21 55 3 -3 6 -35 8 -71 3 -65 -14 -134 -34 -134 -13 0 -99 56 -107
71 -5 6 13 -2 38 -19 25 -18 53 -32 62 -32 17 0 35 39 34 73 0 14 -5 8 -13
-18 -14 -47 -31 -48 -86 -7 -19 15 -40 26 -47 24 -19 -4 -92 89 -128 163 -35
72 -58 174 -36 161 6 -4 11 -12 11 -18z m1847 -27 c-3 -28 -18 -75 -32 -105
-28 -59 -114 -180 -122 -172 -3 3 10 24 29 48 20 24 43 57 53 73 l17 30 -23
-30 c-13 -16 -39 -46 -56 -66 -18 -20 -33 -46 -33 -58 0 -14 -17 -32 -56 -58
l-56 -37 -19 23 c-11 13 -19 31 -18 40 0 9 5 4 11 -11 14 -40 51 -34 106 15
40 37 23 38 -24 2 -25 -19 -49 -35 -54 -35 -9 0 -29 54 -31 84 -1 16 -3 13
-10 -9 -6 -22 -7 -13 -5 33 2 35 9 69 15 75 8 8 11 5 11 -12 0 -12 5 -42 11
-67 9 -33 16 -44 30 -44 11 0 52 33 93 73 59 58 82 90 117 164 24 50 46 92 48
92 2 1 1 -21 -2 -48z m-723 7 c9 -35 6 -57 -4 -33 -7 15 -9 16 -9 4 -1 -9 -8
-22 -16 -29 -13 -11 -15 -8 -15 14 0 26 19 66 31 66 4 0 9 -10 13 -22z m-129
-77 c22 -10 49 -26 60 -35 15 -12 7 -11 -35 5 -80 31 -139 27 -242 -15 -48
-20 -98 -36 -110 -35 -16 1 -11 4 13 9 19 5 73 27 119 49 94 46 134 50 195 22z
m750 -40 c3 -5 2 -12 -3 -15 -5 -3 -9 1 -9 9 0 17 3 19 12 6z m-635 -21 c8 -5
11 -10 5 -10 -5 0 -17 5 -25 10 -8 5 -10 10 -5 10 6 0 17 -5 25 -10z m63 -17
c-7 -2 -21 -2 -30 0 -10 3 -4 5 12 5 17 0 24 -2 18 -5z m-273 -30 c-8 -3 -24
-10 -35 -15 -20 -9 -20 -9 -1 6 11 9 27 16 35 15 14 0 14 -1 1 -6z m78 -13
c17 -11 32 -23 32 -26 0 -4 -6 -2 -13 4 -7 7 -29 18 -48 26 -19 9 -27 15 -19
16 8 0 30 -9 48 -20z"/>
<path d="M2900 2501 c0 -6 5 -13 10 -16 6 -3 10 1 10 9 0 9 -4 16 -10 16 -5 0
-10 -4 -10 -9z"/>
<path d="M2600 2240 c-8 -5 -27 -10 -42 -10 -16 0 -28 -4 -28 -8 0 -5 10 -8
23 -8 13 1 21 -4 19 -12 -1 -7 3 -22 9 -33 10 -20 12 -20 29 -4 15 14 17 22 9
39 -9 19 -9 19 4 4 12 -15 17 -16 32 -4 39 28 -13 63 -55 36z"/>
<path d="M1420 2065 c0 -2 6 -8 13 -14 10 -8 14 -7 14 2 0 8 -6 14 -14 14 -7
0 -13 -1 -13 -2z"/>
<path d="M1429 2026 c0 -1 -2 -8 -4 -17 -2 -11 3 -16 13 -15 19 3 25 33 6 33
-8 0 -14 -1 -15 -1z"/>
<path d="M1581 2004 c6 -7 16 -11 21 -8 11 7 3 17 -18 20 -12 2 -13 -1 -3 -12z"/>
<path d="M1673 2003 c0 -9 4 -10 14 -2 7 6 13 12 13 14 0 1 -6 2 -13 2 -8 0
-14 -6 -14 -14z"/>
<path d="M1626 2002 c-3 -5 1 -9 9 -9 8 0 12 4 9 9 -3 4 -7 8 -9 8 -2 0 -6 -4
-9 -8z"/>
<path d="M1629 1979 c0 -2 -2 -13 -4 -24 -2 -11 -9 -21 -15 -23 -6 -2 -4 -9 7
-17 13 -9 22 -10 30 -3 9 7 17 7 27 -1 10 -9 16 -9 21 -1 4 6 14 9 23 5 12 -4
12 -1 -4 16 -15 17 -15 21 -3 17 9 -4 16 -1 16 7 0 7 -6 11 -13 8 -6 -2 -15 1
-19 7 -5 8 -11 8 -21 -1 -11 -9 -17 -9 -29 1 -8 7 -15 11 -16 9z m14 -32 c-4
-7 5 -4 20 6 15 9 27 16 28 15 12 -42 4 -64 -17 -47 -10 8 -18 9 -27 0 -18
-15 -29 -3 -17 19 5 10 6 21 2 25 -4 5 -1 5 6 1 7 -4 9 -13 5 -19z"/>
<path d="M1674 1949 c-3 -6 -2 -15 3 -20 5 -5 9 -1 9 11 0 23 -2 24 -12 9z"/>
<path d="M1829 2029 c-6 -33 -5 -35 21 -34 14 0 27 5 27 12 0 7 -4 10 -9 7 -5
-3 -15 0 -23 6 -8 7 -15 11 -16 9z"/>
<path d="M1829 1975 c0 0 -2 -8 -4 -18 -3 -18 -2 -18 15 -2 11 10 24 14 31 9
7 -4 10 -3 5 4 -5 8 -36 13 -47 7z"/>
<path d="M1825 1921 c-3 -5 -2 -12 3 -15 5 -3 9 1 9 9 0 17 -3 19 -12 6z"/>
<path d="M1329 2153 c-13 -16 -12 -17 4 -4 9 7 17 15 17 17 0 8 -8 3 -21 -13z"/>
<path d="M1329 2128 c-5 -18 -6 -38 -1 -34 7 8 12 36 6 36 -2 0 -4 -1 -5 -2z"/>
<path d="M1307 2049 c7 -7 15 -10 18 -7 3 3 -2 9 -12 12 -14 6 -15 5 -6 -5z"/>
<path d="M1979 2128 c-5 -18 -6 -38 -1 -34 7 8 12 36 6 36 -2 0 -4 -1 -5 -2z"/>
<path d="M1243 2218 c-4 -7 -8 -19 -10 -27 -1 -8 -7 -17 -13 -21 -8 -5 -8 -9
2 -13 8 -3 15 0 16 6 2 22 8 42 15 55 5 6 6 12 3 12 -3 0 -8 -6 -13 -12z"/>
<path d="M2047 2209 c7 -7 15 -10 18 -7 3 3 -2 9 -12 12 -14 6 -15 5 -6 -5z"/>
<path d="M2056 2181 c-3 -5 1 -11 9 -14 9 -4 12 -1 8 9 -6 16 -10 17 -17 5z"/>
<path d="M1979 2056 c-5 -23 -2 -46 5 -48 12 -4 15 41 4 48 -4 3 -8 3 -9 0z"/>
<path d="M798 1771 c17 -10 15 -21 -6 -44 -14 -16 -14 -19 -2 -27 10 -6 11
-10 3 -10 -7 0 -17 8 -22 18 -6 9 -11 12 -11 7 0 -17 22 -35 42 -35 43 0 69
66 35 87 -6 4 -7 1 -3 -8 4 -8 1 -6 -7 4 -8 9 -20 17 -28 17 -12 0 -12 -2 -1
-9z m46 -56 c-7 -17 -33 -28 -30 -12 3 21 17 38 26 32 5 -3 7 -12 4 -20z"/>
<path d="M760 1750 c-6 -11 -8 -20 -6 -20 3 0 10 9 16 20 6 11 8 20 6 20 -3 0
-10 -9 -16 -20z"/>
<path d="M640 1649 c14 -6 42 -12 62 -13 20 -1 70 -19 110 -39 43 -21 76 -32
81 -27 4 6 4 8 1 5 -4 -2 -25 6 -48 19 -49 28 -124 52 -186 60 -38 4 -41 4
-20 -5z"/>
<path d="M832 1542 c29 -37 164 -161 175 -162 16 0 2 39 -28 79 -28 39 -99 89
-133 95 -25 4 -26 3 -14 -12z"/>
<path d="M2474 1771 c3 -5 -1 -12 -10 -15 -10 -4 -13 -2 -8 6 4 7 3 8 -4 4
-17 -10 -15 -26 3 -26 8 0 15 -3 16 -7 0 -5 2 -17 4 -28 3 -18 2 -18 -16 4
-14 17 -19 19 -19 7 0 -15 28 -36 50 -36 6 0 8 5 4 12 -5 8 -2 9 9 5 27 -10
42 29 22 59 -14 22 -64 37 -51 15z m50 -27 c3 -8 3 -21 0 -29 -5 -12 -9 -11
-24 7 -10 12 -16 28 -13 35 6 15 29 7 37 -13z"/>
<path d="M2384 1622 c3 -5 0 -13 -6 -15 -9 -4 -10 -6 -1 -6 17 -1 25 16 12 25
-7 4 -9 3 -5 -4z"/>
<path d="M2400 1590 c-6 -11 -8 -20 -6 -20 3 0 10 9 16 20 6 11 8 20 6 20 -3
0 -10 -9 -16 -20z"/>
<path d="M2400 1531 c-58 -37 -95 -77 -114 -123 -20 -48 -4 -46 49 7 22 22 60
57 84 77 32 27 41 40 34 52 -7 13 -15 11 -53 -13z"/>
<path d="M1097 1678 c-12 -10 -14 -17 -6 -28 9 -13 10 -13 6 0 -2 8 3 20 12
27 9 7 13 13 10 13 -3 0 -13 -6 -22 -12z"/>
<path d="M1255 1700 c-3 -6 1 -7 9 -4 18 7 21 14 7 14 -6 0 -13 -4 -16 -10z"/>
<path d="M1986 1691 c-3 -5 6 -16 20 -26 20 -13 29 -14 38 -5 8 8 7 9 -7 4
-12 -4 -17 -2 -15 7 2 9 -4 13 -16 11 -11 -2 -15 1 -11 7 3 6 4 11 1 11 -3 0
-7 -4 -10 -9z"/>
<path d="M1275 1641 c-3 -5 -2 -12 3 -15 5 -3 9 1 9 9 0 17 -3 19 -12 6z"/>
<path d="M2012 1637 c11 -8 14 -18 8 -27 -12 -19 -3 -31 17 -23 12 5 14 3 8
-7 -6 -9 -4 -11 5 -5 10 6 10 11 -3 20 -22 16 -22 26 1 19 14 -5 15 -4 2 5 -8
7 -24 16 -35 22 -18 9 -18 9 -3 -4z"/>
<path d="M1255 1622 c4 -8 0 -18 -10 -26 -16 -12 -16 -13 6 -11 24 2 28 21 7
40 -8 7 -9 6 -3 -3z"/>
<path d="M2176 1355 c-9 -26 -7 -32 5 -12 6 10 9 21 6 23 -2 3 -7 -2 -11 -11z"/>
<path d="M1408 1203 c-25 -10 -38 -22 -38 -34 0 -30 -1 -33 -13 -49 -7 -8 9 4
36 28 26 23 61 45 77 48 16 4 27 10 24 15 -8 13 -44 10 -86 -8z"/>
<path d="M1795 1210 c-3 -6 5 -10 19 -10 14 0 41 -13 59 -30 19 -16 39 -30 44
-30 6 0 18 -9 28 -20 9 -10 22 -18 29 -17 6 1 10 -5 8 -13 -2 -10 0 -12 6 -5
11 11 15 29 13 59 -1 19 -2 18 -22 -3 -19 -20 -23 -21 -37 -8 -8 9 -15 25 -16
38 -1 16 -11 26 -36 35 -43 15 -87 17 -95 4z"/>
<path d="M1324 1179 c-10 -17 13 -36 27 -22 12 12 4 33 -11 33 -5 0 -12 -5
-16 -11z"/>
<path d="M1940 1169 c0 -24 23 -21 28 4 2 10 -3 17 -12 17 -10 0 -16 -9 -16
-21z"/>
<path d="M1296 1153 c-9 -9 -7 -51 3 -57 4 -3 15 0 24 7 15 11 14 14 -2 34
-10 12 -21 19 -25 16z"/>
<path d="M2190 1146 c-18 -23 -76 -30 -122 -16 -33 9 -42 9 -49 -2 -15 -23
-10 -50 11 -55 11 -3 17 -9 14 -14 -3 -5 2 -6 10 -3 9 3 16 2 16 -3 0 -5 7
-10 15 -11 76 -7 87 -1 109 65 17 50 16 62 -4 39z"/>
<path d="M1090 1137 c0 -7 9 -31 20 -54 18 -41 37 -52 75 -43 6 1 15 3 21 4 7
1 20 8 30 16 16 13 17 13 9 0 -6 -11 -3 -10 12 3 11 9 22 15 24 12 3 -2 3 12
1 31 -3 28 -8 34 -21 29 -41 -16 -110 -17 -140 -2 -22 11 -31 12 -31 4z"/>
<path d="M810 1086 c0 -2 9 -6 20 -9 11 -3 20 -1 20 4 0 5 -9 9 -20 9 -11 0
-20 -2 -20 -4z"/>
<path d="M2440 1084 c0 -8 9 -14 20 -14 11 0 20 4 20 9 0 5 -9 11 -20 14 -13
3 -20 0 -20 -9z"/>
<path d="M823 565 c0 -8 4 -12 9 -9 5 3 6 10 3 15 -9 13 -12 11 -12 -6z"/>
<path d="M2365 681 c-3 -5 -2 -12 3 -15 5 -3 9 1 9 9 0 17 -3 19 -12 6z"/>
<path d="M1932 884 c10 -10 20 -16 22 -13 3 3 -5 11 -17 18 -21 13 -21 12 -5
-5z"/>
<path d="M785 500 c16 -30 88 -120 92 -116 3 2 -17 31 -43 63 -53 66 -60 74
-49 53z"/>
</g>
</svg>
