{
    "asset" : {
        "generator" : "Khronos glTF Blender I/O v1.5.17",
        "version" : "2.0"
    },
    "scene" : 0,
    "scenes" : [
        {
            "name" : "Scene",
            "nodes" : [
                0,
                1,
                2,
                3,
                4,
                5,
                6,
                7,
                8,
                9,
                10,
                11,
                12,
                13
            ]
        }
    ],
    "nodes" : [
        {
            "mesh" : 0,
            "name" : "Cube",
            "scale" : [
                0.0949999988079071,
                0.03999999910593033,
                0.06300000101327896
            ]
        },
        {
            "name" : "Light",
            "rotation" : [
                0.16907575726509094,
                0.7558803558349609,
                -0.27217137813568115,
                0.570947527885437
            ],
            "translation" : [
                4.076245307922363,
                5.903861999511719,
                -1.0054539442062378
            ]
        },
        {
            "name" : "Camera",
            "rotation" : [
                0.483536034822464,
                0.33687159419059753,
                -0.20870360732078552,
                0.7804827094078064
            ],
            "translation" : [
                7.358891487121582,
                4.958309173583984,
                6.925790786743164
            ]
        },
        {
            "mesh" : 1,
            "name" : "Cube.001",
            "scale" : [
                0.0949999988079071,
                0.004000000189989805,
                0.06300000101327896
            ],
            "translation" : [
                0,
                -0.04399999976158142,
                0
            ]
        },
        {
            "mesh" : 2,
            "name" : "Cube.002",
            "scale" : [
                0.000750000006519258,
                0.03999999910593033,
                0.000750000006519258
            ],
            "translation" : [
                0.07901843637228012,
                -0.07972414791584015,
                4.277215339243412e-06
            ]
        },
        {
            "mesh" : 3,
            "name" : "Cube.003",
            "scale" : [
                0.000750000006519258,
                0.03999999910593033,
                0.000750000006519258
            ],
            "translation" : [
                -0.07865063101053238,
                -0.07972414791584015,
                0.00011120340786874294
            ]
        },
        {
            "mesh" : 4,
            "name" : "Cube.004",
            "scale" : [
                0.000750000006519258,
                0.03999999910593033,
                0.000750000006519258
            ],
            "translation" : [
                0.07901843637228012,
                -0.07972414791584015,
                -0.045118577778339386
            ]
        },
        {
            "mesh" : 5,
            "name" : "Cube.005",
            "scale" : [
                0.000750000006519258,
                0.03999999910593033,
                0.000750000006519258
            ],
            "translation" : [
                0.07901843637228012,
                -0.07972414791584015,
                -0.022557150572538376
            ]
        },
        {
            "mesh" : 6,
            "name" : "Cube.006",
            "scale" : [
                0.000750000006519258,
                0.03999999910593033,
                0.000750000006519258
            ],
            "translation" : [
                0.07901843637228012,
                -0.07972414791584015,
                0.0450202040374279
            ]
        },
        {
            "mesh" : 7,
            "name" : "Cube.007",
            "scale" : [
                0.000750000006519258,
                0.03999999910593033,
                0.000750000006519258
            ],
            "translation" : [
                0.07901843637228012,
                -0.07972414791584015,
                0.02363496460020542
            ]
        },
        {
            "mesh" : 8,
            "name" : "Cube.008",
            "scale" : [
                0.000750000006519258,
                0.03999999910593033,
                0.000750000006519258
            ],
            "translation" : [
                -0.07865063101053238,
                -0.07972414791584015,
                -0.022557148709893227
            ]
        },
        {
            "mesh" : 9,
            "name" : "Cube.009",
            "scale" : [
                0.000750000006519258,
                0.03999999910593033,
                0.000750000006519258
            ],
            "translation" : [
                -0.07865063101053238,
                -0.07972414791584015,
                -0.04479779675602913
            ]
        },
        {
            "mesh" : 10,
            "name" : "Cube.010",
            "scale" : [
                0.000750000006519258,
                0.03999999910593033,
                0.000750000006519258
            ],
            "translation" : [
                -0.07865063101053238,
                -0.07972414791584015,
                0.023421112447977066
            ]
        },
        {
            "mesh" : 11,
            "name" : "Cube.011",
            "scale" : [
                0.000750000006519258,
                0.03999999910593033,
                0.000750000006519258
            ],
            "translation" : [
                -0.07865063101053238,
                -0.07972414791584015,
                0.044806353747844696
            ]
        }
    ],
    "materials" : [
        {
            "doubleSided" : true,
            "name" : "MaterialBas",
            "pbrMetallicRoughness" : {
                "baseColorTexture" : {
                    "index" : 0
                },
                "metallicFactor" : 0,
                "roughnessFactor" : 0.4000000059604645
            }
        },
        {
            "doubleSided" : true,
            "name" : "Ser",
            "pbrMetallicRoughness" : {
                "baseColorTexture" : {
                    "index" : 1
                },
                "metallicFactor" : 0,
                "roughnessFactor" : 0.4000000059604645
            }
        }
    ],
    "meshes" : [
        {
            "name" : "Cube",
            "primitives" : [
                {
                    "attributes" : {
                        "POSITION" : 0,
                        "NORMAL" : 1,
                        "TEXCOORD_0" : 2
                    },
                    "indices" : 3,
                    "material" : 0
                }
            ]
        },
        {
            "name" : "Cube.002",
            "primitives" : [
                {
                    "attributes" : {
                        "POSITION" : 4,
                        "NORMAL" : 5,
                        "TEXCOORD_0" : 6
                    },
                    "indices" : 7,
                    "material" : 1
                }
            ]
        },
        {
            "name" : "Cube.003",
            "primitives" : [
                {
                    "attributes" : {
                        "POSITION" : 8,
                        "NORMAL" : 9,
                        "TEXCOORD_0" : 10
                    },
                    "indices" : 3,
                    "material" : 0
                }
            ]
        },
        {
            "name" : "Cube.004",
            "primitives" : [
                {
                    "attributes" : {
                        "POSITION" : 11,
                        "NORMAL" : 12,
                        "TEXCOORD_0" : 13
                    },
                    "indices" : 3,
                    "material" : 0
                }
            ]
        },
        {
            "name" : "Cube.005",
            "primitives" : [
                {
                    "attributes" : {
                        "POSITION" : 14,
                        "NORMAL" : 15,
                        "TEXCOORD_0" : 16
                    },
                    "indices" : 3,
                    "material" : 0
                }
            ]
        },
        {
            "name" : "Cube.006",
            "primitives" : [
                {
                    "attributes" : {
                        "POSITION" : 17,
                        "NORMAL" : 18,
                        "TEXCOORD_0" : 19
                    },
                    "indices" : 3,
                    "material" : 0
                }
            ]
        },
        {
            "name" : "Cube.007",
            "primitives" : [
                {
                    "attributes" : {
                        "POSITION" : 20,
                        "NORMAL" : 21,
                        "TEXCOORD_0" : 22
                    },
                    "indices" : 3,
                    "material" : 0
                }
            ]
        },
        {
            "name" : "Cube.008",
            "primitives" : [
                {
                    "attributes" : {
                        "POSITION" : 23,
                        "NORMAL" : 24,
                        "TEXCOORD_0" : 25
                    },
                    "indices" : 3,
                    "material" : 0
                }
            ]
        },
        {
            "name" : "Cube.009",
            "primitives" : [
                {
                    "attributes" : {
                        "POSITION" : 26,
                        "NORMAL" : 27,
                        "TEXCOORD_0" : 28
                    },
                    "indices" : 3,
                    "material" : 0
                }
            ]
        },
        {
            "name" : "Cube.010",
            "primitives" : [
                {
                    "attributes" : {
                        "POSITION" : 29,
                        "NORMAL" : 30,
                        "TEXCOORD_0" : 31
                    },
                    "indices" : 3,
                    "material" : 0
                }
            ]
        },
        {
            "name" : "Cube.011",
            "primitives" : [
                {
                    "attributes" : {
                        "POSITION" : 32,
                        "NORMAL" : 33,
                        "TEXCOORD_0" : 34
                    },
                    "indices" : 3,
                    "material" : 0
                }
            ]
        },
        {
            "name" : "Cube.012",
            "primitives" : [
                {
                    "attributes" : {
                        "POSITION" : 35,
                        "NORMAL" : 36,
                        "TEXCOORD_0" : 37
                    },
                    "indices" : 3,
                    "material" : 0
                }
            ]
        }
    ],
    "textures" : [
        {
            "sampler" : 0,
            "source" : 0
        },
        {
            "sampler" : 0,
            "source" : 1
        }
    ],
    "images" : [
        {
            "bufferView" : 4,
            "mimeType" : "image/png",
            "name" : "Untitled"
        },
        {
            "bufferView" : 9,
            "mimeType" : "image/png",
            "name" : "ser"
        }
    ],
    "accessors" : [
        {
            "bufferView" : 0,
            "componentType" : 5126,
            "count" : 24,
            "max" : [
                1,
                1,
                1
            ],
            "min" : [
                -1,
                -1,
                -1
            ],
            "type" : "VEC3"
        },
        {
            "bufferView" : 1,
            "componentType" : 5126,
            "count" : 24,
            "type" : "VEC3"
        },
        {
            "bufferView" : 2,
            "componentType" : 5126,
            "count" : 24,
            "type" : "VEC2"
        },
        {
            "bufferView" : 3,
            "componentType" : 5123,
            "count" : 36,
            "type" : "SCALAR"
        },
        {
            "bufferView" : 5,
            "componentType" : 5126,
            "count" : 926,
            "max" : [
                1,
                15.230937957763672,
                1
            ],
            "min" : [
                -1,
                -1,
                -1
            ],
            "type" : "VEC3"
        },
        {
            "bufferView" : 6,
            "componentType" : 5126,
            "count" : 926,
            "type" : "VEC3"
        },
        {
            "bufferView" : 7,
            "componentType" : 5126,
            "count" : 926,
            "type" : "VEC2"
        },
        {
            "bufferView" : 8,
            "componentType" : 5123,
            "count" : 1704,
            "type" : "SCALAR"
        },
        {
            "bufferView" : 10,
            "componentType" : 5126,
            "count" : 24,
            "max" : [
                1,
                1,
                1
            ],
            "min" : [
                -1,
                -1,
                -1
            ],
            "type" : "VEC3"
        },
        {
            "bufferView" : 11,
            "componentType" : 5126,
            "count" : 24,
            "type" : "VEC3"
        },
        {
            "bufferView" : 12,
            "componentType" : 5126,
            "count" : 24,
            "type" : "VEC2"
        },
        {
            "bufferView" : 13,
            "componentType" : 5126,
            "count" : 24,
            "max" : [
                1,
                1,
                1
            ],
            "min" : [
                -1,
                -1,
                -1
            ],
            "type" : "VEC3"
        },
        {
            "bufferView" : 14,
            "componentType" : 5126,
            "count" : 24,
            "type" : "VEC3"
        },
        {
            "bufferView" : 15,
            "componentType" : 5126,
            "count" : 24,
            "type" : "VEC2"
        },
        {
            "bufferView" : 16,
            "componentType" : 5126,
            "count" : 24,
            "max" : [
                1,
                1,
                1
            ],
            "min" : [
                -1,
                -1,
                -1
            ],
            "type" : "VEC3"
        },
        {
            "bufferView" : 17,
            "componentType" : 5126,
            "count" : 24,
            "type" : "VEC3"
        },
        {
            "bufferView" : 18,
            "componentType" : 5126,
            "count" : 24,
            "type" : "VEC2"
        },
        {
            "bufferView" : 19,
            "componentType" : 5126,
            "count" : 24,
            "max" : [
                1,
                1,
                1
            ],
            "min" : [
                -1,
                -1,
                -1
            ],
            "type" : "VEC3"
        },
        {
            "bufferView" : 20,
            "componentType" : 5126,
            "count" : 24,
            "type" : "VEC3"
        },
        {
            "bufferView" : 21,
            "componentType" : 5126,
            "count" : 24,
            "type" : "VEC2"
        },
        {
            "bufferView" : 22,
            "componentType" : 5126,
            "count" : 24,
            "max" : [
                1,
                1,
                1
            ],
            "min" : [
                -1,
                -1,
                -1
            ],
            "type" : "VEC3"
        },
        {
            "bufferView" : 23,
            "componentType" : 5126,
            "count" : 24,
            "type" : "VEC3"
        },
        {
            "bufferView" : 24,
            "componentType" : 5126,
            "count" : 24,
            "type" : "VEC2"
        },
        {
            "bufferView" : 25,
            "componentType" : 5126,
            "count" : 24,
            "max" : [
                1,
                1,
                1
            ],
            "min" : [
                -1,
                -1,
                -1
            ],
            "type" : "VEC3"
        },
        {
            "bufferView" : 26,
            "componentType" : 5126,
            "count" : 24,
            "type" : "VEC3"
        },
        {
            "bufferView" : 27,
            "componentType" : 5126,
            "count" : 24,
            "type" : "VEC2"
        },
        {
            "bufferView" : 28,
            "componentType" : 5126,
            "count" : 24,
            "max" : [
                1,
                1,
                1
            ],
            "min" : [
                -1,
                -1,
                -1
            ],
            "type" : "VEC3"
        },
        {
            "bufferView" : 29,
            "componentType" : 5126,
            "count" : 24,
            "type" : "VEC3"
        },
        {
            "bufferView" : 30,
            "componentType" : 5126,
            "count" : 24,
            "type" : "VEC2"
        },
        {
            "bufferView" : 31,
            "componentType" : 5126,
            "count" : 24,
            "max" : [
                1,
                1,
                1
            ],
            "min" : [
                -1,
                -1,
                -1
            ],
            "type" : "VEC3"
        },
        {
            "bufferView" : 32,
            "componentType" : 5126,
            "count" : 24,
            "type" : "VEC3"
        },
        {
            "bufferView" : 33,
            "componentType" : 5126,
            "count" : 24,
            "type" : "VEC2"
        },
        {
            "bufferView" : 34,
            "componentType" : 5126,
            "count" : 24,
            "max" : [
                1,
                1,
                1
            ],
            "min" : [
                -1,
                -1,
                -1
            ],
            "type" : "VEC3"
        },
        {
            "bufferView" : 35,
            "componentType" : 5126,
            "count" : 24,
            "type" : "VEC3"
        },
        {
            "bufferView" : 36,
            "componentType" : 5126,
            "count" : 24,
            "type" : "VEC2"
        },
        {
            "bufferView" : 37,
            "componentType" : 5126,
            "count" : 24,
            "max" : [
                1,
                1,
                1
            ],
            "min" : [
                -1,
                -1,
                -1
            ],
            "type" : "VEC3"
        },
        {
            "bufferView" : 38,
            "componentType" : 5126,
            "count" : 24,
            "type" : "VEC3"
        },
        {
            "bufferView" : 39,
            "componentType" : 5126,
            "count" : 24,
            "type" : "VEC2"
        }
    ],
    "bufferViews" : [
        {
            "buffer" : 0,
            "byteLength" : 288,
            "byteOffset" : 0
        },
        {
            "buffer" : 0,
            "byteLength" : 288,
            "byteOffset" : 288
        },
        {
            "buffer" : 0,
            "byteLength" : 192,
            "byteOffset" : 576
        },
        {
            "buffer" : 0,
            "byteLength" : 72,
            "byteOffset" : 768
        },
        {
            "buffer" : 0,
            "byteLength" : 40836,
            "byteOffset" : 840
        },
        {
            "buffer" : 0,
            "byteLength" : 11112,
            "byteOffset" : 41676
        },
        {
            "buffer" : 0,
            "byteLength" : 11112,
            "byteOffset" : 52788
        },
        {
            "buffer" : 0,
            "byteLength" : 7408,
            "byteOffset" : 63900
        },
        {
            "buffer" : 0,
            "byteLength" : 3408,
            "byteOffset" : 71308
        },
        {
            "buffer" : 0,
            "byteLength" : 71202,
            "byteOffset" : 74716
        },
        {
            "buffer" : 0,
            "byteLength" : 288,
            "byteOffset" : 145920
        },
        {
            "buffer" : 0,
            "byteLength" : 288,
            "byteOffset" : 146208
        },
        {
            "buffer" : 0,
            "byteLength" : 192,
            "byteOffset" : 146496
        },
        {
            "buffer" : 0,
            "byteLength" : 288,
            "byteOffset" : 146688
        },
        {
            "buffer" : 0,
            "byteLength" : 288,
            "byteOffset" : 146976
        },
        {
            "buffer" : 0,
            "byteLength" : 192,
            "byteOffset" : 147264
        },
        {
            "buffer" : 0,
            "byteLength" : 288,
            "byteOffset" : 147456
        },
        {
            "buffer" : 0,
            "byteLength" : 288,
            "byteOffset" : 147744
        },
        {
            "buffer" : 0,
            "byteLength" : 192,
            "byteOffset" : 148032
        },
        {
            "buffer" : 0,
            "byteLength" : 288,
            "byteOffset" : 148224
        },
        {
            "buffer" : 0,
            "byteLength" : 288,
            "byteOffset" : 148512
        },
        {
            "buffer" : 0,
            "byteLength" : 192,
            "byteOffset" : 148800
        },
        {
            "buffer" : 0,
            "byteLength" : 288,
            "byteOffset" : 148992
        },
        {
            "buffer" : 0,
            "byteLength" : 288,
            "byteOffset" : 149280
        },
        {
            "buffer" : 0,
            "byteLength" : 192,
            "byteOffset" : 149568
        },
        {
            "buffer" : 0,
            "byteLength" : 288,
            "byteOffset" : 149760
        },
        {
            "buffer" : 0,
            "byteLength" : 288,
            "byteOffset" : 150048
        },
        {
            "buffer" : 0,
            "byteLength" : 192,
            "byteOffset" : 150336
        },
        {
            "buffer" : 0,
            "byteLength" : 288,
            "byteOffset" : 150528
        },
        {
            "buffer" : 0,
            "byteLength" : 288,
            "byteOffset" : 150816
        },
        {
            "buffer" : 0,
            "byteLength" : 192,
            "byteOffset" : 151104
        },
        {
            "buffer" : 0,
            "byteLength" : 288,
            "byteOffset" : 151296
        },
        {
            "buffer" : 0,
            "byteLength" : 288,
            "byteOffset" : 151584
        },
        {
            "buffer" : 0,
            "byteLength" : 192,
            "byteOffset" : 151872
        },
        {
            "buffer" : 0,
            "byteLength" : 288,
            "byteOffset" : 152064
        },
        {
            "buffer" : 0,
            "byteLength" : 288,
            "byteOffset" : 152352
        },
        {
            "buffer" : 0,
            "byteLength" : 192,
            "byteOffset" : 152640
        },
        {
            "buffer" : 0,
            "byteLength" : 288,
            "byteOffset" : 152832
        },
        {
            "buffer" : 0,
            "byteLength" : 288,
            "byteOffset" : 153120
        },
        {
            "buffer" : 0,
            "byteLength" : 192,
            "byteOffset" : 153408
        }
    ],
    "samplers" : [
        {
            "magFilter" : 9729,
            "minFilter" : 9987
        }
    ],
    "buffers" : [
        {
            "byteLength" : 153600,
            "uri" : "data:application/octet-stream;base64,"
        }
    ]
}
