{
    "asset" : {
        "generator" : "Khronos glTF Blender I/O v1.5.17",
        "version" : "2.0"
    },
    "scene" : 0,
    "scenes" : [
        {
            "name" : "Scene",
            "nodes" : [
                0,
                1,
                2,
                3,
                4,
                5,
                6,
                7
            ]
        }
    ],
    "nodes" : [
        {
            "mesh" : 0,
            "name" : "8_7",
            "scale" : [
                0.019143851473927498,
                0.019143851473927498,
                0.019143851473927498
            ],
            "translation" : [
                -0.031695835292339325,
                0.016217056661844254,
                -0.005375107750296593
            ]
        },
        {
            "mesh" : 1,
            "name" : "8_8",
            "scale" : [
                0.0050288415513932705,
                0.0050288415513932705,
                0.0050288415513932705
            ],
            "translation" : [
                -0.045746732503175735,
                0.04209066182374954,
                0.03566017746925354
            ]
        },
        {
            "mesh" : 2,
            "name" : "8_6",
            "scale" : [
                0.005686861462891102,
                0.005686861462891102,
                0.005686861462891102
            ],
            "translation" : [
                -0.0444517582654953,
                0.009870062582194805,
                0.01724851131439209
            ]
        },
        {
            "mesh" : 3,
            "name" : "8_2",
            "scale" : [
                0.005686861462891102,
                0.005686861462891102,
                0.005686861462891102
            ],
            "translation" : [
                -0.0444517582654953,
                0.010074803605675697,
                0.01724851131439209
            ]
        },
        {
            "mesh" : 4,
            "name" : "8_5",
            "scale" : [
                0.005686861462891102,
                0.005686861462891102,
                0.005686861462891102
            ],
            "translation" : [
                -0.0444517582654953,
                0.009938309900462627,
                0.01724851131439209
            ]
        },
        {
            "mesh" : 5,
            "name" : "8_1",
            "scale" : [
                0.019143851473927498,
                0.019143851473927498,
                0.019143851473927498
            ],
            "translation" : [
                -0.031695835292339325,
                0.016217056661844254,
                -0.005375107750296593
            ]
        },
        {
            "mesh" : 6,
            "name" : "8_3",
            "scale" : [
                0.005686861462891102,
                0.005686861462891102,
                0.005686861462891102
            ],
            "translation" : [
                -0.0444517582654953,
                0.009938309900462627,
                0.01724851131439209
            ]
        },
        {
            "mesh" : 7,
            "name" : "8_4",
            "scale" : [
                0.019143851473927498,
                0.019143851473927498,
                0.019143851473927498
            ],
            "translation" : [
                -0.07207545638084412,
                0.016217056661844254,
                -0.010834887623786926
            ]
        }
    ],
    "materials" : [
        {
            "doubleSided" : true,
            "name" : "8.",
            "pbrMetallicRoughness" : {
                "baseColorTexture" : {
                    "index" : 0
                },
                "metallicFactor" : 0,
                "roughnessFactor" : 0.5
            }
        }
    ],
    "meshes" : [
        {
            "name" : "Cube.001",
            "primitives" : [
                {
                    "attributes" : {
                        "POSITION" : 0,
                        "NORMAL" : 1,
                        "TEXCOORD_0" : 2
                    },
                    "indices" : 3,
                    "material" : 0
                }
            ]
        },
        {
            "name" : "Cylinder",
            "primitives" : [
                {
                    "attributes" : {
                        "POSITION" : 4,
                        "NORMAL" : 5,
                        "TEXCOORD_0" : 6
                    },
                    "indices" : 7,
                    "material" : 0
                }
            ]
        },
        {
            "name" : "Cylinder.001",
            "primitives" : [
                {
                    "attributes" : {
                        "POSITION" : 8,
                        "NORMAL" : 9,
                        "TEXCOORD_0" : 10
                    },
                    "indices" : 11,
                    "material" : 0
                }
            ]
        },
        {
            "name" : "Cylinder.002",
            "primitives" : [
                {
                    "attributes" : {
                        "POSITION" : 12,
                        "NORMAL" : 13,
                        "TEXCOORD_0" : 14
                    },
                    "indices" : 15,
                    "material" : 0
                }
            ]
        },
        {
            "name" : "Cylinder.003",
            "primitives" : [
                {
                    "attributes" : {
                        "POSITION" : 16,
                        "NORMAL" : 17,
                        "TEXCOORD_0" : 18
                    },
                    "indices" : 19,
                    "material" : 0
                }
            ]
        },
        {
            "name" : "Cube.013",
            "primitives" : [
                {
                    "attributes" : {
                        "POSITION" : 20,
                        "NORMAL" : 21,
                        "TEXCOORD_0" : 22
                    },
                    "indices" : 3,
                    "material" : 0
                }
            ]
        },
        {
            "name" : "Cylinder.004",
            "primitives" : [
                {
                    "attributes" : {
                        "POSITION" : 23,
                        "NORMAL" : 24,
                        "TEXCOORD_0" : 25
                    },
                    "indices" : 26,
                    "material" : 0
                }
            ]
        },
        {
            "name" : "Cube.014",
            "primitives" : [
                {
                    "attributes" : {
                        "POSITION" : 27,
                        "NORMAL" : 28,
                        "TEXCOORD_0" : 29
                    },
                    "indices" : 30,
                    "material" : 0
                }
            ]
        }
    ],
    "textures" : [
        {
            "sampler" : 0,
            "source" : 0
        }
    ],
    "images" : [
        {
            "bufferView" : 4,
            "mimeType" : "image/png",
            "name" : "Untitled"
        }
    ],
    "accessors" : [
        {
            "bufferView" : 0,
            "componentType" : 5126,
            "count" : 24,
            "max" : [
                -0.42637985944747925,
                1.6175036430358887,
                0.9084527492523193
            ],
            "min" : [
                -1.0080777406692505,
                1.0513001680374146,
                -1
            ],
            "type" : "VEC3"
        },
        {
            "bufferView" : 1,
            "componentType" : 5126,
            "count" : 24,
            "type" : "VEC3"
        },
        {
            "bufferView" : 2,
            "componentType" : 5126,
            "count" : 24,
            "type" : "VEC2"
        },
        {
            "bufferView" : 3,
            "componentType" : 5123,
            "count" : 36,
            "type" : "SCALAR"
        },
        {
            "bufferView" : 5,
            "componentType" : 5126,
            "count" : 192,
            "max" : [
                1,
                1,
                1
            ],
            "min" : [
                -1,
                -1,
                -1
            ],
            "type" : "VEC3"
        },
        {
            "bufferView" : 6,
            "componentType" : 5126,
            "count" : 192,
            "type" : "VEC3"
        },
        {
            "bufferView" : 7,
            "componentType" : 5126,
            "count" : 192,
            "type" : "VEC2"
        },
        {
            "bufferView" : 8,
            "componentType" : 5123,
            "count" : 372,
            "type" : "SCALAR"
        },
        {
            "bufferView" : 9,
            "componentType" : 5126,
            "count" : 192,
            "max" : [
                7.795011520385742,
                6.573270320892334,
                2.163947105407715
            ],
            "min" : [
                -1.139129638671875,
                4.573270320892334,
                -0.8232598304748535
            ],
            "type" : "VEC3"
        },
        {
            "bufferView" : 10,
            "componentType" : 5126,
            "count" : 192,
            "type" : "VEC3"
        },
        {
            "bufferView" : 11,
            "componentType" : 5126,
            "count" : 192,
            "type" : "VEC2"
        },
        {
            "bufferView" : 12,
            "componentType" : 5123,
            "count" : 372,
            "type" : "SCALAR"
        },
        {
            "bufferView" : 13,
            "componentType" : 5126,
            "count" : 192,
            "max" : [
                17.006011962890625,
                6.607208251953125,
                -5.190148830413818
            ],
            "min" : [
                8.153501510620117,
                4.552633285522461,
                -8.235870361328125
            ],
            "type" : "VEC3"
        },
        {
            "bufferView" : 14,
            "componentType" : 5126,
            "count" : 192,
            "type" : "VEC3"
        },
        {
            "bufferView" : 15,
            "componentType" : 5126,
            "count" : 192,
            "type" : "VEC2"
        },
        {
            "bufferView" : 16,
            "componentType" : 5123,
            "count" : 372,
            "type" : "SCALAR"
        },
        {
            "bufferView" : 17,
            "componentType" : 5126,
            "count" : 192,
            "max" : [
                7.819822788238525,
                6.573336601257324,
                -6.632739543914795
            ],
            "min" : [
                -1.1135740280151367,
                4.573187828063965,
                -9.322763442993164
            ],
            "type" : "VEC3"
        },
        {
            "bufferView" : 18,
            "componentType" : 5126,
            "count" : 192,
            "type" : "VEC3"
        },
        {
            "bufferView" : 19,
            "componentType" : 5126,
            "count" : 192,
            "type" : "VEC2"
        },
        {
            "bufferView" : 20,
            "componentType" : 5123,
            "count" : 372,
            "type" : "SCALAR"
        },
        {
            "bufferView" : 21,
            "componentType" : 5126,
            "count" : 24,
            "max" : [
                4.389557361602783,
                1.6175036430358887,
                1.5757696628570557
            ],
            "min" : [
                3.807859420776367,
                1.0513001680374146,
                -0.33268314599990845
            ],
            "type" : "VEC3"
        },
        {
            "bufferView" : 22,
            "componentType" : 5126,
            "count" : 24,
            "type" : "VEC3"
        },
        {
            "bufferView" : 23,
            "componentType" : 5126,
            "count" : 24,
            "type" : "VEC2"
        },
        {
            "bufferView" : 24,
            "componentType" : 5126,
            "count" : 192,
            "max" : [
                17.03049087524414,
                6.653200149536133,
                3.3601348400115967
            ],
            "min" : [
                8.10982608795166,
                4.527922630310059,
                0.5737395882606506
            ],
            "type" : "VEC3"
        },
        {
            "bufferView" : 25,
            "componentType" : 5126,
            "count" : 192,
            "type" : "VEC3"
        },
        {
            "bufferView" : 26,
            "componentType" : 5126,
            "count" : 192,
            "type" : "VEC2"
        },
        {
            "bufferView" : 27,
            "componentType" : 5123,
            "count" : 372,
            "type" : "SCALAR"
        },
        {
            "bufferView" : 28,
            "componentType" : 5126,
            "count" : 40,
            "max" : [
                4.0751471519470215,
                1.6175036430358887,
                1.765727162361145
            ],
            "min" : [
                3.588175058364868,
                1.0513001680374146,
                -0.6201701164245605
            ],
            "type" : "VEC3"
        },
        {
            "bufferView" : 29,
            "componentType" : 5126,
            "count" : 40,
            "type" : "VEC3"
        },
        {
            "bufferView" : 30,
            "componentType" : 5126,
            "count" : 40,
            "type" : "VEC2"
        },
        {
            "bufferView" : 31,
            "componentType" : 5123,
            "count" : 60,
            "type" : "SCALAR"
        }
    ],
    "bufferViews" : [
        {
            "buffer" : 0,
            "byteLength" : 288,
            "byteOffset" : 0
        },
        {
            "buffer" : 0,
            "byteLength" : 288,
            "byteOffset" : 288
        },
        {
            "buffer" : 0,
            "byteLength" : 192,
            "byteOffset" : 576
        },
        {
            "buffer" : 0,
            "byteLength" : 72,
            "byteOffset" : 768
        },
        {
            "buffer" : 0,
            "byteLength" : 20562,
            "byteOffset" : 840
        },
        {
            "buffer" : 0,
            "byteLength" : 2304,
            "byteOffset" : 21404
        },
        {
            "buffer" : 0,
            "byteLength" : 2304,
            "byteOffset" : 23708
        },
        {
            "buffer" : 0,
            "byteLength" : 1536,
            "byteOffset" : 26012
        },
        {
            "buffer" : 0,
            "byteLength" : 744,
            "byteOffset" : 27548
        },
        {
            "buffer" : 0,
            "byteLength" : 2304,
            "byteOffset" : 28292
        },
        {
            "buffer" : 0,
            "byteLength" : 2304,
            "byteOffset" : 30596
        },
        {
            "buffer" : 0,
            "byteLength" : 1536,
            "byteOffset" : 32900
        },
        {
            "buffer" : 0,
            "byteLength" : 744,
            "byteOffset" : 34436
        },
        {
            "buffer" : 0,
            "byteLength" : 2304,
            "byteOffset" : 35180
        },
        {
            "buffer" : 0,
            "byteLength" : 2304,
            "byteOffset" : 37484
        },
        {
            "buffer" : 0,
            "byteLength" : 1536,
            "byteOffset" : 39788
        },
        {
            "buffer" : 0,
            "byteLength" : 744,
            "byteOffset" : 41324
        },
        {
            "buffer" : 0,
            "byteLength" : 2304,
            "byteOffset" : 42068
        },
        {
            "buffer" : 0,
            "byteLength" : 2304,
            "byteOffset" : 44372
        },
        {
            "buffer" : 0,
            "byteLength" : 1536,
            "byteOffset" : 46676
        },
        {
            "buffer" : 0,
            "byteLength" : 744,
            "byteOffset" : 48212
        },
        {
            "buffer" : 0,
            "byteLength" : 288,
            "byteOffset" : 48956
        },
        {
            "buffer" : 0,
            "byteLength" : 288,
            "byteOffset" : 49244
        },
        {
            "buffer" : 0,
            "byteLength" : 192,
            "byteOffset" : 49532
        },
        {
            "buffer" : 0,
            "byteLength" : 2304,
            "byteOffset" : 49724
        },
        {
            "buffer" : 0,
            "byteLength" : 2304,
            "byteOffset" : 52028
        },
        {
            "buffer" : 0,
            "byteLength" : 1536,
            "byteOffset" : 54332
        },
        {
            "buffer" : 0,
            "byteLength" : 744,
            "byteOffset" : 55868
        },
        {
            "buffer" : 0,
            "byteLength" : 480,
            "byteOffset" : 56612
        },
        {
            "buffer" : 0,
            "byteLength" : 480,
            "byteOffset" : 57092
        },
        {
            "buffer" : 0,
            "byteLength" : 320,
            "byteOffset" : 57572
        },
        {
            "buffer" : 0,
            "byteLength" : 120,
            "byteOffset" : 57892
        }
    ],
    "samplers" : [
        {
            "magFilter" : 9729,
            "minFilter" : 9987
        }
    ],
    "buffers" : [
        {
            "byteLength" : 58012,
            "uri" : "data:application/octet-stream;base64,"
        }
    ]
}
